<?xml version="1.0" standalone="no"?><!DOCTYPE svg PUBLIC "-//W3C//DTD SVG 1.1//EN" "http://www.w3.org/Graphics/SVG/1.1/DTD/svg11.dtd"><svg t="1572269479174" class="icon" viewBox="0 0 1024 1024" version="1.1" xmlns="http://www.w3.org/2000/svg" p-id="1363" xmlns:xlink="http://www.w3.org/1999/xlink" width="200" height="200"><defs><style type="text/css"></style></defs><path d="M512 909.061224c-218.906122 0-397.061224-178.155102-397.061224-397.061224s178.155102-397.061224 397.061224-397.061224 397.061224 178.155102 397.061224 397.061224-178.155102 397.061224-397.061224 397.061224z" fill="#16C4AF" p-id="1364"></path><path d="M512 730.383673c-10.971429 0-19.853061-8.881633-19.853061-19.853061V313.469388c0-10.971429 8.881633-19.853061 19.853061-19.853061s19.853061 8.881633 19.853061 19.853061v397.061224c0 10.971429-8.881633 19.853061-19.853061 19.853061z" fill="#C3F4EA" p-id="1365"></path><path d="M512 730.383673c-5.22449 0-9.926531-2.089796-14.106122-5.746938-7.836735-7.836735-7.836735-20.37551 0-28.212245l160.914285-160.914286c7.836735-7.836735 20.37551-7.836735 28.212245 0 7.836735 7.836735 7.836735 20.37551 0 28.212245l-160.914286 160.914286c-4.179592 3.657143-8.881633 5.746939-14.106122 5.746938z" fill="#C3F4EA" p-id="1366"></path><path d="M512 730.383673c-5.22449 0-9.926531-2.089796-14.106122-5.746938l-160.914286-160.914286c-7.836735-7.836735-7.836735-20.37551 0-28.212245 7.836735-7.836735 20.37551-7.836735 28.212245 0l160.914285 160.914286c7.836735 7.836735 7.836735 20.37551 0 28.212245-4.179592 3.657143-8.881633 5.746939-14.106122 5.746938z" fill="#C3F4EA" p-id="1367"></path></svg>